# xmcd
#
# Track frame offsets:
#	150
#	15702
#	28152
#	37947
#	51420
#	63225
#	73327
#	83250
#	89012
#	93947
#	103225
#	113220
#	122870
#	134827
#	145550
#	155445
#	167637
#	177640
#	190102
#	204682
#	216895
#	226622
#	236290
#	249982
#	262455
#	275150
#	284662
#	298352
#	311715
#	323475
#	333647
#
# Disc length: 4592 seconds
#
# Revision: 1
# Processed by: cddbd v1.5.2PL0 Copyright (c) Steve Scherf et al.
# Submitted via: audiograbber 1.83.01
#
DISCID=e211ee1f
DTITLE=The Easy Riders - Marianne Vol. 5
DYEAR=1900
DGENRE=Blues
TTITLE0=Speak A Word Of Love (I Wish, I Wish)
TTITLE1=The Cry Of The Wild Goose
TTITLE2=Lady From Laramie
TTITLE3=Little King
TTITLE4=Oh Brandy Leave Me Alone
TTITLE5=Boll Weevil
TTITLE6=Black Eyed Susie
TTITLE7=The Story Of The Creation
TTITLE8=Cotton Eyed Joe
TTITLE9=Billy Boy
TTITLE10=Roving Gambler
TTITLE11=Jennie Jenkins
TTITLE12=Black Is The Color
TTITLE13=I Know Where I'm Going
TTITLE14=Ev'ryone's Crazy 'Ceptin' Me
TTITLE15=Runnin' Away
TTITLE16=The Secret
TTITLE17=Nellie Lou
TTITLE18=Fast Freight
TTITLE19=The Solitary Singer
TTITLE20=Mr. Buzzard
TTITLE21=The Tick Tock Song
TTITLE22=Across The Wide Missouri (& The Weavers)
TTITLE23=On Top Of Old Smoky (& The Weavers)
TTITLE24=The Girl In The Wood
TTITLE25=Mr. Buzzard
TTITLE26=Fast Freight
TTITLE27=Hoofbeat Serenade
TTITLE28=Stay A While (& Marie Greene)
TTITLE29=Rollin' Stone
TTITLE30=The World Belongs To Me
EXTD=
EXTT0=
EXTT1=
EXTT2=
EXTT3=
EXTT4=
EXTT5=
EXTT6=
EXTT7=
EXTT8=
EXTT9=
EXTT10=
EXTT11=
EXTT12=
EXTT13=
EXTT14=
EXTT15=
EXTT16=
EXTT17=
EXTT18=
EXTT19=
EXTT20=
EXTT21=
EXTT22=
EXTT23=
EXTT24=
EXTT25=
EXTT26=
EXTT27=
EXTT28=
EXTT29=
EXTT30=
PLAYORDER=
